<?xml version="1.0" encoding="UTF-8" standalone="no"?>
<svg
   xmlns:dc="http://purl.org/dc/elements/1.1/"
   xmlns:cc="http://creativecommons.org/ns#"
   xmlns:rdf="http://www.w3.org/1999/02/22-rdf-syntax-ns#"
   xmlns:svg="http://www.w3.org/2000/svg"
   xmlns="http://www.w3.org/2000/svg"
   viewBox="0 0 389.33334 213.33333"
   height="213.33333"
   width="389.33334"
   xml:space="preserve"
   id="svg2"
   version="1.1"><metadata
     id="metadata8"><rdf:RDF><cc:Work
         rdf:about=""><dc:format>image/svg+xml</dc:format><dc:type
           rdf:resource="http://purl.org/dc/dcmitype/StillImage" /></cc:Work></rdf:RDF></metadata><defs
     id="defs6" /><g
     transform="matrix(1.3333333,0,0,-1.3333333,0,213.33333)"
     id="g10"><g
       transform="scale(0.1)"
       id="g12"><path
         id="path14"
         style="fill:#06357a;fill-opacity:1;fill-rule:evenodd;stroke:none"
         d="m 1344.06,888.441 c -85.97,-0.98 -165.97,-5.472 -240,-13.48 -73.98,-8.012 -138.982,-18.832 -195.001,-32.5 -55.661,-13.672 -99.137,-29.18 -130.508,-46.52 -31.321,-17.66 -47.301,-36.64 -47.961,-56.992 0.66,-20.668 17.5,-40 50.461,-58.008 33.359,-17.972 79.34,-33.832 138.008,-47.5 59.031,-13.64 127.351,-24.339 205.001,-31.992 77.66,-7.66 161.33,-11.648 251.02,-12 76.33,0 148.32,2.852 215.97,8.52 68.01,5.98 129.85,13.98 185.51,23.98 -40,8.321 -77.34,16.172 -111.99,23.52 -34.34,7.301 -66.33,16.133 -96.02,26.48 -29.64,10 -57.5,23.672 -83.47,41.02 -26.02,17.301 -50.67,40 -74.03,67.972 -23.32,28.36 -45.66,64.18 -66.99,107.5" /><path
         id="path16"
         style="fill:#034ea2;fill-opacity:1;fill-rule:evenodd;stroke:none"
         d="m 1416.05,821.449 c -36.99,36.992 -69.14,76.672 -96.48,119.02 -26.99,42.301 -48.83,86.131 -65.51,131.481 -16.33,45 -26.99,90 -31.99,135 -10.66,-53.32 -12.66,-106.83 -6.02,-160.5 6.37,-53.329 21.18,-104.341 44.54,-153.009 23.32,-48.64 54.64,-92.82 93.98,-132.5 39.34,-38.992 83.16,-70.16 131.48,-93.48 48.36,-23.012 99.03,-38.012 152.04,-45 53.32,-6.68 106.48,-4.84 159.49,5.508 -44.69,5.312 -89.34,16.332 -134.03,32.972 -44.64,16.36 -87.81,38.008 -129.49,65 -41.99,27.028 -81.33,58.86 -118.01,95.508" /><path
         id="path18"
         style="fill:#06357a;fill-opacity:1;fill-rule:evenodd;stroke:none"
         d="m 1600.08,1003.95 c -53.01,53.67 -96.17,109.68 -129.49,168 -33.01,58.67 -54.85,116.33 -65.51,173.01 -11.02,56.33 -9.69,108.01 3.98,155 -24.33,-16.33 -46.83,-34.69 -67.5,-55 l -6.48,-7.5 c -0.35,-0.35 -1.02,-1.01 -1.99,-1.99 -1.37,-1.37 -2.19,-2.35 -2.5,-3.01 -27.04,-38.01 -44.18,-80.66 -51.53,-128.01 -7.34,-47.34 -5.51,-96.99 5.51,-148.98 11.02,-51.68 30.66,-103.01 58.98,-154.02 28.36,-50.669 64.69,-98.481 109.03,-143.481 43.67,-43.36 90.51,-79.02 140.51,-107.028 50,-27.972 100.46,-47.82 151.48,-59.492 51.02,-11.648 99.84,-14.5 146.48,-8.48 47.04,5.98 89.18,21.332 126.53,45.98 l 6.48,5.5 14.49,13.52 c 19.03,19.332 36.53,40.472 52.5,63.48 -46.99,-12.347 -98.47,-12.82 -154.49,-1.488 -55.97,11.328 -113.01,33.48 -170.97,66.488 -58.01,33 -113.17,75.5 -165.51,127.501" /><path
         id="path20"
         style="fill:#4fb3cf;fill-opacity:1;fill-rule:evenodd;stroke:none"
         d="m 2169.06,951.449 c 8.01,24.02 13.83,48.352 17.5,73.001 3.67,24.65 5.67,49.5 6.02,74.5 -23.01,-18.01 -49.85,-28.99 -80.51,-33.01 -31.02,-4.34 -63.98,-1.99 -98.98,7.03 -35.36,9.33 -71.02,24.65 -107.04,45.98 -35.97,21.67 -70.82,49.17 -104.49,82.5 -34.33,34.33 -62.34,70.15 -83.98,107.5 -21.99,36.99 -37.35,73.51 -46.02,109.49 -8.67,36.01 -10.31,69.68 -5,101.01 5.35,31.02 18.17,57.85 38.52,80.51 -24.69,0.31 -49.03,-1.01 -73.01,-4.02 -23.98,-2.66 -47.34,-7.31 -70,-13.99 -13.98,-6.99 -26.33,-15.82 -36.99,-26.48 -24.34,-25 -39.03,-56.17 -44.03,-93.52 -5.31,-37.34 -1.83,-78.51 10.51,-123.51 12.66,-44.65 33.17,-90.47 61.53,-137.5 28.63,-46.64 64.64,-91.84 107.96,-135.47 43.68,-43.36 88.87,-79.341 135.51,-108.009 46.99,-28.672 92.85,-49.18 137.5,-61.52 45,-12.312 86.17,-15.98 123.52,-10.98 37.65,5.309 68.83,20.16 93.47,44.488 0.36,0.352 1.68,2 4.03,5 2.65,3.321 5.51,6.68 8.47,10 2.7,3.672 4.54,6.02 5.51,7" /><path
         id="path22"
         style="fill:#06357a;fill-opacity:1;fill-rule:evenodd;stroke:none"
         d="m 2182.58,1222.97 c 0.66,24.33 -3.67,50.31 -13.01,77.97 -8.98,27.69 -22.5,55.51 -40.51,83.51 -18.01,28.01 -39.49,54.5 -64.49,79.5 -21.99,22.34 -45.51,41.83 -70.51,58.51 -25,16.99 -50.15,30.51 -75.51,40.51 -25.31,10.31 -49.49,16.48 -72.5,18.48 -13.98,1.67 -28.98,1.17 -45,-1.49 -15.97,-3.01 -30.46,-10.51 -43.47,-22.5 -14.03,-14.69 -22.19,-33.67 -24.49,-56.99 -2.04,-23.36 1.32,-49.34 10,-78.01 8.63,-28.36 22.14,-57.34 40.46,-86.99 18.36,-29.69 40.86,-58.01 67.5,-85 27.04,-26.68 55.36,-49.18 85,-67.5 29.69,-18.36 58.68,-31.84 87.04,-40.51 28.63,-8.67 54.64,-11.99 77.96,-10 23.36,2.34 42.35,10.51 57.04,24.49 15.31,15.67 23.47,37.66 24.49,66.02" /><path
         id="path24"
         style="fill:#06357a;fill-opacity:1;fill-rule:nonzero;stroke:none"
         d="m 99.6914,6.08984 c -16.3711,0 -30.7812,1.67969 -43.2812,4.99996 -12.4297,3.4415 -22.8204,8.211 -31.25,14.379 C 16.8008,31.6016 10.5117,38.9805 6.25,47.6602 2.07031,56.4102 0,65.9805 0,76.4102 0,86.4805 3.12109,94.6094 9.37891,100.781 15.6211,106.91 24.5313,110 36.0898,110 c 0.5118,-10.4297 2.1094,-20.4297 4.8516,-30 2.6875,-9.6094 6.7188,-18.0898 12.0274,-25.4687 5.3906,-7.3008 12.2304,-13.1211 20.4726,-17.5 8.3203,-4.3711 18.3594,-6.5625 30.1486,-6.5625 22.39,0 39.89,5.3906 52.5,16.25 12.582,10.8203 18.91,26.4023 18.91,46.7226 0,9.1366 -1.328,17.2186 -3.91,24.2186 -2.61,6.949 -6.949,13.43 -12.969,19.371 -5.93,5.938 -13.859,11.598 -23.742,17.028 C 124.57,159.57 112.34,165.352 97.6602,171.41 82.2305,177.73 68.75,184.531 57.1914,191.719 45.6211,198.98 35.9805,207.07 28.2813,215.941 20.6602,224.77 15,234.609 11.25,245.469 7.5,256.41 5.62109,268.75 5.62109,282.5 c 0,14.262 2.69922,27.031 8.12891,38.281 5.5117,11.25 13.1289,20.699 22.8086,28.438 9.7695,7.691 21.332,13.59 34.6914,17.66 13.4414,4.062 28.0117,6.09 43.75,6.09 15,0 28.281,-1.559 39.84,-4.688 11.57,-3.051 21.289,-7.152 29.219,-12.34 8.011,-5.242 14.101,-11.211 18.281,-17.972 4.14,-6.797 6.25,-13.828 6.25,-21.09 0,-10.75 -3.551,-18.867 -10.621,-24.379 -7.11,-5.43 -16.68,-8.121 -28.75,-8.121 0,7.812 -0.938,15.461 -2.809,22.961 -1.879,7.582 -5,14.379 -9.379,20.32 -4.371,5.93 -10.152,10.781 -17.34,14.531 -7.191,3.75 -16.062,5.618 -26.57,5.618 -9.68,0 -18.3515,-1.36 -25.9296,-4.059 -7.5,-2.621 -13.8711,-6.41 -19.0703,-11.41 -5.2305,-5 -9.2109,-11.008 -12.0313,-17.961 -2.7304,-7 -4.0585,-14.809 -4.0585,-23.438 0,-9.921 1.289,-18.671 3.9101,-26.25 2.5781,-7.5 6.9102,-14.339 12.9688,-20.472 6.1289,-6.168 14.1406,-11.949 24.0586,-17.34 10.0002,-5.43 22.2302,-11.098 36.7222,-17.039 14.571,-5.93 27.579,-12.262 39.059,-18.899 11.559,-6.679 21.289,-14.14 29.219,-22.351 8.011,-8.238 14.101,-17.461 18.281,-27.649 4.262,-10.242 6.41,-21.722 6.41,-34.531 0,-15.8592 -2.93,-29.9998 -8.75,-42.4998 C 208.16,51.4805 199.922,40.9805 189.219,32.3398 178.48,23.7891 165.512,17.2695 150.309,12.8086 135.199,8.35938 118.32,6.08984 99.6914,6.08984 Z M 339.84,130.309 320.781,77.8086 c -1.48,-3.8594 -2.621,-7.7305 -3.441,-11.5586 -0.86,-3.8711 -1.25,-7.1484 -1.25,-9.8398 0,-8.5586 2.699,-14.8086 8.129,-18.75 5.511,-3.8711 13.902,-5.7813 25.16,-5.7813 h 11.402 V 10.9414 H 238.75 v 20.9375 h 9.531 c 4.879,0 8.989,0.5 12.34,1.5625 3.438,1.1289 6.57,3.1602 9.379,6.0899 2.809,2.8906 5.469,6.8789 7.969,11.8789 2.5,5.0703 5.312,11.6015 8.441,19.5312 L 397.191,367.809 H 436.25 L 549.379,58.5898 c 1.871,-5.2304 3.781,-9.5312 5.781,-12.9687 2.07,-3.4297 4.449,-6.2109 7.18,-8.2813 2.82,-1.9882 5.98,-3.3906 9.539,-4.2187 3.633,-0.8516 7.891,-1.2422 12.812,-1.2422 h 6.559 V 10.9414 H 453.91 v 20.9375 h 11.399 c 20,0 30,8 30,24.0625 0,2.6875 -0.387,5.5078 -1.09,8.4375 -0.739,2.8906 -1.719,6.2422 -2.969,10 l -20,55.9301 z m 91.25,112.5 c -5.231,14.89 -10,28.793 -14.371,41.722 -4.297,12.891 -7.77,25.391 -10.469,37.5 -1.172,-6.051 -2.5,-11.871 -4.059,-17.5 -1.57,-5.621 -3.242,-11.371 -5,-17.191 -1.8,-5.86 -3.832,-11.988 -6.101,-18.43 -2.301,-6.488 -4.918,-13.601 -7.809,-21.41 l -33.902,-92.031 h 112.812 z" /><path
         id="path26"
         style="fill:#06357a;fill-opacity:1;fill-rule:nonzero;stroke:none"
         d="m 610.352,10.9414 v 20.9375 h 6.41 c 5.617,0 10.937,0.3906 15.937,1.2422 5,0.8281 9.289,2.5 12.961,5 3.75,2.5 6.641,6.0977 8.75,10.7891 2.192,4.7617 3.289,11.0898 3.289,18.8984 V 310.941 c 0,7.809 -1.097,14.059 -3.289,18.75 -2.109,4.758 -5,8.43 -8.75,10.93 -3.672,2.5 -7.961,4.149 -12.961,5 -5,0.828 -10.32,1.258 -15.937,1.258 h -6.41 v 20.93 H 755.82 v -20.93 h -6.558 c -5.551,0 -10.782,-0.399 -15.782,-1.098 -4.929,-0.742 -9.218,-2.34 -12.968,-4.84 -3.75,-2.421 -6.801,-5.859 -9.063,-10.32 -2.187,-4.492 -3.289,-10.391 -3.289,-17.652 V 35.7813 h 98.75 c 7.5,0 13.828,1.3281 19.07,4.0585 5.309,2.6993 9.68,6.1797 13.122,10.4688 3.437,4.3828 6.097,9.2227 7.968,14.5312 1.879,5.3907 3.129,10.7813 3.75,16.1016 l 4.84,37.4996 h 26.102 L 878.48,10.9414 Z" /><path
         id="path28"
         style="fill:#06357a;fill-opacity:1;fill-rule:nonzero;stroke:none"
         d="m 1149.57,35.7813 h 96.56 c 7.89,0 14.69,1.0976 20.32,3.2773 5.62,2.2695 10.31,5.2422 14.06,8.9102 3.75,3.75 6.64,8.121 8.75,13.121 2.19,5 3.63,10.2383 4.37,15.7891 l 3.44,21.4024 h 26.09 l -3.28,-87.3399 h -268.12 v 20.9375 h 6.4 c 5.51,0 10.71,0.3516 15.63,1.0899 5,0.7031 9.37,2.2304 13.12,4.5312 3.75,2.2695 6.72,5.6602 8.91,10.1602 2.19,4.4492 3.28,10.3515 3.28,17.6484 V 310.941 c 0,7.809 -1.09,14.059 -3.28,18.75 -2.11,4.758 -5,8.43 -8.75,10.93 -3.67,2.5 -7.97,4.149 -12.97,5 -5,0.828 -10.31,1.258 -15.94,1.258 h -6.4 v 20.93 h 251.87 l 2.5,-87.34 h -25.93 l -2.35,21.562 c -0.62,5.508 -1.87,10.699 -3.75,15.629 -1.87,5 -4.61,9.371 -8.12,13.121 -3.56,3.75 -7.97,6.719 -13.28,8.91 -5.24,2.188 -11.57,3.278 -19.07,3.278 h -84.06 V 209.84 h 120.63 v -24.371 h -120.63 z" /><path
         id="path30"
         style="fill:#06357a;fill-opacity:1;fill-rule:nonzero;stroke:none"
         d="M 1484.3,10.9414 1376.48,320.469 c -1.79,5.191 -3.75,9.531 -5.93,12.972 -2.11,3.438 -4.53,6.09 -7.35,7.969 -2.73,1.949 -5.9,3.36 -9.53,4.211 -3.55,0.828 -7.77,1.258 -12.65,1.258 h -6.57 v 20.93 h 137.5 v -20.93 h -11.56 c -10.12,0 -17.66,-1.957 -22.66,-5.789 -4.92,-3.75 -7.34,-9.801 -7.34,-18.121 0,-2.809 0.35,-5.699 1.09,-8.59 0.71,-2.93 1.76,-6.258 3.13,-10 l 54.84,-162.348 c 5.08,-14.801 9.42,-29.179 12.97,-43.1208 3.52,-13.8711 6.72,-26.8399 9.53,-38.9102 2.58,12.0703 5.67,24.8398 9.22,38.2813 3.63,13.5197 8.21,28.1287 13.75,43.7497 l 55.16,158.91 c 1.25,4.059 2.26,7.969 3.12,11.719 0.82,3.75 1.25,7.031 1.25,9.84 0,8.629 -2.77,14.84 -8.28,18.59 -5.43,3.832 -13.67,5.789 -24.69,5.789 h -11.4 v 20.93 h 121.72 v -20.93 h -9.53 c -4.81,0 -8.99,-0.547 -12.5,-1.57 -3.56,-0.93 -6.72,-2.809 -9.54,-5.618 -2.81,-2.812 -5.46,-6.8 -7.96,-11.882 -2.43,-5 -5,-11.559 -7.82,-19.688 L 1521.02,10.9414 Z" /><path
         id="path32"
         style="fill:#06357a;fill-opacity:1;fill-rule:nonzero;stroke:none"
         d="m 1789.22,35.7813 h 96.56 c 7.89,0 14.69,1.0976 20.31,3.2773 5.63,2.2695 10.32,5.2422 14.07,8.9102 3.75,3.75 6.64,8.121 8.75,13.121 2.18,5 3.63,10.2383 4.37,15.7891 l 3.44,21.4024 h 26.09 l -3.28,-87.3399 h -268.12 v 20.9375 h 6.4 c 5.51,0 10.71,0.3516 15.63,1.0899 5,0.7031 9.37,2.2304 13.12,4.5312 3.75,2.2695 6.72,5.6602 8.91,10.1602 2.19,4.4492 3.28,10.3515 3.28,17.6484 V 310.941 c 0,7.809 -1.09,14.059 -3.28,18.75 -2.11,4.758 -5,8.43 -8.75,10.93 -3.67,2.5 -7.97,4.149 -12.97,5 -5,0.828 -10.31,1.258 -15.94,1.258 h -6.4 v 20.93 h 251.87 l 2.5,-87.34 h -25.94 l -2.34,21.562 c -0.62,5.508 -1.88,10.699 -3.75,15.629 -1.87,5 -4.61,9.371 -8.13,13.121 -3.55,3.75 -7.96,6.719 -13.28,8.91 -5.23,2.188 -11.56,3.278 -19.06,3.278 h -84.06 V 209.84 h 120.62 v -24.371 h -120.62 z" /><path
         id="path34"
         style="fill:#06357a;fill-opacity:1;fill-rule:nonzero;stroke:none"
         d="M 2268.24,10.9414 2080.74,299.059 V 67.8086 c 0,-7.8086 1.1,-14.1367 3.28,-18.8984 2.27,-4.6914 5.24,-8.2891 8.91,-10.7891 3.63,-2.5 7.97,-4.1719 12.97,-5 5.08,-0.8516 10.39,-1.2422 15.94,-1.2422 h 6.56 V 10.9414 h -125.47 v 20.9375 h 6.41 c 5.62,0 10.93,0.3906 15.93,1.2422 5,0.8281 9.3,2.5 12.97,5 3.75,2.5 6.64,6.0977 8.75,10.7891 2.19,4.7617 3.28,11.0898 3.28,18.8984 V 312.969 c 0,7.261 -1.09,13.16 -3.28,17.652 -2.19,4.461 -5.15,7.899 -8.9,10.32 -3.75,2.5 -8.13,4.098 -13.13,4.84 -4.92,0.699 -10.12,1.098 -15.62,1.098 h -6.41 v 20.93 h 91.56 L 2273.4,91.5586 V 312.969 c 0,7.261 -1.1,13.16 -3.28,17.652 -2.19,4.461 -5.16,7.899 -8.91,10.32 -3.75,2.5 -8.12,4.098 -13.12,4.84 -4.93,0.699 -10.12,1.098 -15.63,1.098 h -6.72 v 20.93 h 125.63 v -20.93 h -6.41 c -5.74,0 -11.09,-0.43 -16.09,-1.258 -4.92,-0.851 -9.22,-2.5 -12.97,-5 -3.75,-2.5 -6.72,-6.172 -8.91,-10.93 -2.11,-4.691 -3.12,-10.941 -3.12,-18.75 V 10.9414 Z" /><path
         id="path36"
         style="fill:#06357a;fill-opacity:1;fill-rule:nonzero;stroke:none"
         d="m 2543.67,67.8086 c 0,-7.8086 1.1,-14.1367 3.28,-18.8984 2.19,-4.6914 5.08,-8.2891 8.75,-10.7891 3.75,-2.5 8.13,-4.1719 13.13,-5 5,-0.8516 10.31,-1.2422 15.94,-1.2422 h 11.4 V 10.9414 H 2440.7 v 20.9375 h 11.41 c 5.51,0 10.78,0.3516 15.78,1.0899 5,0.7031 9.3,2.2304 12.97,4.5312 3.75,2.2695 6.72,5.6602 8.91,10.1602 2.26,4.4492 3.43,10.3515 3.43,17.6484 V 342.969 h -47.97 c -7.3,0 -13.43,-1.09 -18.43,-3.278 -4.92,-2.191 -8.99,-5.16 -12.19,-8.91 -3.13,-3.75 -5.47,-8.121 -7.03,-13.121 -1.56,-4.93 -2.66,-10.121 -3.28,-15.629 l -2.66,-21.562 h -25.94 l 2.5,87.34 h 281.41 l 2.5,-87.34 h -25.94 l -2.34,21.562 c -0.74,5.508 -1.95,10.699 -3.6,15.629 -1.56,5 -3.9,9.371 -7.03,13.121 -3.04,3.75 -7.11,6.719 -12.18,8.91 -5,2.188 -11.25,3.278 -18.75,3.278 h -48.6 z" /><path
         id="path38"
         style="fill:#06357a;fill-opacity:1;fill-rule:nonzero;stroke:none"
         d="m 2795.94,6.08984 c -16.37,0 -30.78,1.67969 -43.28,4.99996 -12.43,3.4415 -22.82,8.211 -31.25,14.379 -8.36,6.1328 -14.65,13.5117 -18.91,22.1914 -4.18,8.75 -6.25,18.3203 -6.25,28.75 0,10.0703 3.13,18.1992 9.37,24.3708 6.26,6.129 15.16,9.219 26.72,9.219 0.51,-10.4297 2.11,-20.4297 4.85,-30 2.69,-9.6094 6.72,-18.0898 12.03,-25.4687 5.39,-7.3008 12.23,-13.1211 20.47,-17.5 8.32,-4.3711 18.36,-6.5625 30.15,-6.5625 22.39,0 39.89,5.3906 52.5,16.25 12.58,10.8203 18.91,26.4023 18.91,46.7226 0,9.1366 -1.33,17.2186 -3.91,24.2186 -2.61,6.949 -6.95,13.43 -12.96,19.371 -5.94,5.938 -13.87,11.598 -23.76,17.028 -9.8,5.511 -22.03,11.293 -36.71,17.351 -15.43,6.32 -28.91,13.121 -40.47,20.309 -11.56,7.261 -21.21,15.351 -28.91,24.222 -7.62,8.829 -13.28,18.668 -17.03,29.528 -3.75,10.941 -5.62,23.281 -5.62,37.031 0,14.262 2.69,27.031 8.12,38.281 5.51,11.25 13.12,20.699 22.81,28.438 9.77,7.691 21.33,13.59 34.69,17.66 13.44,4.062 28.01,6.09 43.75,6.09 15,0 28.28,-1.559 39.84,-4.688 11.57,-3.051 21.29,-7.152 29.22,-12.34 8.01,-5.242 14.1,-11.211 18.28,-17.972 4.14,-6.797 6.25,-13.828 6.25,-21.09 0,-10.75 -3.55,-18.867 -10.62,-24.379 -7.11,-5.43 -16.68,-8.121 -28.75,-8.121 0,7.812 -0.94,15.461 -2.81,22.961 -1.88,7.582 -5,14.379 -9.38,20.32 -4.37,5.93 -10.16,10.781 -17.34,14.531 -7.19,3.75 -16.06,5.618 -26.56,5.618 -9.69,0 -18.36,-1.36 -25.94,-4.059 -7.5,-2.621 -13.87,-6.41 -19.06,-11.41 -5.24,-5 -9.22,-11.008 -12.04,-17.961 -2.73,-7 -4.06,-14.809 -4.06,-23.438 0,-9.921 1.29,-18.671 3.91,-26.25 2.58,-7.5 6.91,-14.339 12.97,-20.472 6.13,-6.168 14.14,-11.949 24.06,-17.34 10,-5.43 22.23,-11.098 36.72,-17.039 14.57,-5.93 27.58,-12.262 39.06,-18.899 11.56,-6.679 21.29,-14.14 29.22,-22.351 8.01,-8.238 14.1,-17.461 18.28,-27.649 4.26,-10.242 6.41,-21.722 6.41,-34.531 0,-15.8592 -2.93,-29.9998 -8.75,-42.4998 -5.75,-12.4297 -13.99,-22.9297 -24.69,-31.5704 -10.74,-8.5507 -23.71,-15.0703 -38.91,-19.5312 -15.11,-4.44922 -31.99,-6.71876 -50.62,-6.71876 z" /></g></g></svg>